# xmcd
#
# Track frame offsets:
#	150
#	16756
#	29290
#	49739
#	66914
#	84269
#	103032
#	120774
#	138053
#	156911
#
# Disc length: 2259 seconds
#
# Revision: 0
# Processed by: cddbd v1.5.2PL0 Copyright (c) Steve Scherf et al.
# Submitted via: dBpowerAMP V4.0
#
DISCID=6e08d10a
DTITLE=Cherohala - Cherohala
DYEAR=2007
DGENRE=Bluegrass
TTITLE0=90 Miles
TTITLE1=Hell of a Chance
TTITLE2=Josephine
TTITLE3=Making Believe
TTITLE4=Wayfaring Stranger
TTITLE5=Reach for Me
TTITLE6=Fishin' Hole
TTITLE7=Strangers
TTITLE8=Your Love
TTITLE9=Tonight I'll Be Staying Here With You
EXTD=
EXTT0=
EXTT1=
EXTT2=
EXTT3=
EXTT4=
EXTT5=
EXTT6=
EXTT7=
EXTT8=
EXTT9=
PLAYORDER=
